<svg width="24" height="25" viewBox="0 0 24 25" fill="none" xmlns="http://www.w3.org/2000/svg">
<g id="Frame">
<g id="Group">
<path id="Vector" d="M2.5 4.1123V5.6123C2.5 9.7623 4.71 13.3923 8 15.4123V20.1123H23V18.1123C23 15.4523 17.67 14.1123 15 14.1123C15 14.1123 14.83 14.1123 14.75 14.1123C10 14.1123 6 10.1123 6 5.6123V4.1123H2.5ZM15 4.1123C12.7909 4.1123 11 5.90317 11 8.1123C11 10.3214 12.7909 12.1123 15 12.1123C17.2091 12.1123 19 10.3214 19 8.1123C19 5.90317 17.2091 4.1123 15 4.1123Z" fill="#F2F3F5"/>
</g>
</g>
</svg>
