<svg width="24" height="25" viewBox="0 0 24 25" fill="none" xmlns="http://www.w3.org/2000/svg">
<g id="Frame">
<path id="Vector" d="M12.0002 10.9353L20.9652 5.3723C20.6772 5.2123 20.3522 5.1123 20.0002 5.1123H4.00016C3.64816 5.1123 3.32216 5.2123 3.03516 5.3723L12.0002 10.9353Z" fill="#949BA4"/>
<path id="Vector_2" d="M12.527 12.961C12.366 13.061 12.183 13.112 12 13.112C11.817 13.112 11.634 13.061 11.473 12.962L2.003 7.08498C2.003 7.09398 2 7.10298 2 7.11098V16.111C2 17.213 2.897 18.111 4 18.111H20C21.103 18.111 22 17.213 22 16.111V7.11098C22 7.10198 21.997 7.09298 21.997 7.08398L12.527 12.961Z" fill="#949BA4"/>
</g>
</svg>
