<svg width="24" height="25" viewBox="0 0 24 25" fill="none" xmlns="http://www.w3.org/2000/svg">
<g id="Frame">
<path id="Vector" d="M2.98972 9.4702C2.98972 9.88813 2.63448 10.2364 2.20812 10.2364H1.78177C1.35541 10.2364 1 9.88813 1 9.4702C1 9.05227 1.35541 8.70404 1.78177 8.70404H2.20812C2.63448 8.70404 2.98972 9.05227 2.98972 9.4702ZM22.2468 9.26123C24.0943 13.0923 22.3889 17.6896 18.3385 19.5006C14.4303 21.242 9.74041 19.5703 7.96387 15.7392C7.60863 14.973 7.39545 14.1372 7.32433 13.3013H5.76097C5.33461 13.3013 4.97937 12.9529 4.97937 12.535C4.97937 12.1171 5.33461 11.7688 5.76097 11.7688H8.03499C8.46134 11.7688 8.81658 11.4206 8.81658 11.0027C8.81658 10.5847 8.46134 10.2364 8.03499 10.2364H4.41095C3.9846 10.2364 3.62919 9.88813 3.62919 9.4702C3.62919 9.05227 3.9846 8.70404 4.41095 8.70404H9.45612C9.88248 8.70404 10.2377 8.35565 10.2377 7.93772C10.2377 7.51979 9.88248 7.17157 9.45612 7.17157H7.39545C6.75592 7.17157 6.18733 6.68392 6.18733 5.98748C6.18733 5.36058 6.6848 4.80322 7.39545 4.80322H15.4251C18.2675 4.94265 20.9677 6.54467 22.2468 9.26123ZM13.2663 8.49287C11.0194 9.50427 10.0342 12.1097 11.066 14.3122C12.0978 16.5147 14.7557 17.4804 17.0026 16.469C19.2497 15.4576 20.2347 12.8522 19.2029 10.6497C18.1712 8.44723 15.5132 7.48147 13.2663 8.49287ZM16.8463 9.95779L18.2674 12.3261C18.3386 12.4654 18.3386 12.5351 18.2674 12.6744L16.8463 15.0427C16.7752 15.182 16.6331 15.182 16.562 15.182H13.7907C13.6486 15.182 13.5775 15.1122 13.5066 15.0427L12.0853 12.6744C12.0143 12.5351 12.0143 12.4654 12.0853 12.3261L13.5066 9.95779C13.5775 9.81854 13.7198 9.81854 13.7907 9.81854H16.562C16.7042 9.74883 16.7752 9.81854 16.8463 9.95779Z" fill="#949BA4"/>
</g>
</svg>
